<?xml version="1.0" encoding="utf-8"?>
<!-- Generator: Adobe Illustrator 26.0.1, SVG Export Plug-In . SVG Version: 6.00 Build 0)  -->
<svg version="1.2" baseProfile="tiny" id="Layer_1" xmlns="http://www.w3.org/2000/svg" xmlns:xlink="http://www.w3.org/1999/xlink"
	 x="0px" y="0px" viewBox="0 0 109.07 103.75" overflow="visible" xml:space="preserve">
<g>
	<path d="M54.28,101.76C26.67,101.28,4.8,78.47,5.48,50.48C6.16,23.02,28.44,2.1,54.92,1.87c28.56-0.25,51.28,23.28,50.38,51.56
		C104.45,80.66,81.95,102.42,54.28,101.76z M75.43,22.66c0,0.01,0,0.02,0,0.03c-1.12-0.05-2.24-0.1-3.35-0.15
		c-1.55-0.07-2.31,0.44-2.74,1.91c-0.95,3.26-2.01,6.49-2.76,9.8c-0.29,1.28-0.25,2.9,0.29,4.06c2.39,5.06,4.95,10.03,7.61,14.95
		c0.53,0.99,1.69,1.92,2.76,2.27c2.76,0.92,5.62,1.53,8.45,2.23c1.17,0.29,2.21-0.21,2.68-1.29c2.06-4.72,4.17-9.42,6.08-14.21
		c0.42-1.05,0.42-2.55,0.01-3.59c-1.79-4.48-3.8-8.88-5.76-13.3c-0.58-1.31-1.62-2.02-3.08-2.11
		C82.21,23.06,78.82,22.86,75.43,22.66z M26.08,71.88c0.04,0,0.09,0,0.13,0c0.19,3.27,0.4,6.54,0.55,9.81
		c0.08,1.8,0.93,2.95,2.58,3.65c4.18,1.79,8.34,3.65,12.51,5.47c1.47,0.64,2.95,0.59,4.42-0.04c4.51-1.95,9.02-3.9,13.52-5.86
		c1.28-0.55,1.8-1.54,1.46-2.9c-0.67-2.71-1.37-5.42-2.05-8.13c-0.33-1.32-1.12-2.34-2.29-2.94c-5-2.59-10-5.19-15.07-7.63
		c-1.04-0.5-2.47-0.66-3.59-0.4c-3.53,0.83-7.01,1.91-10.49,2.95c-1.29,0.39-1.72,1.15-1.69,2.54
		C26.1,69.57,26.08,70.73,26.08,71.88z M34.16,27.95c-0.07,0.06-0.15,0.11-0.22,0.17c0.47,0.84,0.8,1.81,1.44,2.48
		c2.12,2.23,4.39,4.31,6.52,6.53c1.41,1.48,2.99,2.05,4.97,1.52c0.46-0.12,0.94-0.19,1.41-0.27c4.62-0.72,9.23-1.42,13.85-2.15
		c1.38-0.22,2.31-1.01,2.7-2.38c0.94-3.34,1.87-6.69,2.84-10.03c0.4-1.4,0-2.53-1.05-3.44c-3.38-2.93-6.77-5.85-10.16-8.77
		c-1.07-0.93-2.34-1.25-3.69-1c-3.77,0.7-7.53,1.45-11.29,2.22c-1.29,0.26-2.26,1.04-2.73,2.29c-1.44,3.81-2.85,7.63-4.26,11.45
		C34.33,27.01,34.27,27.49,34.16,27.95z M13.95,50.41c0.36,0.71,0.71,1.85,1.41,2.7c2.69,3.27,5.51,6.43,8.25,9.65
		c1.17,1.38,2.52,1.79,4.27,1.26c3.06-0.93,6.14-1.78,9.22-2.62c1.61-0.44,2.48-1.43,2.74-3.09c0.8-5.21,1.63-10.41,2.48-15.61
		c0.25-1.54-0.14-2.82-1.25-3.93c-2.21-2.2-4.42-4.39-6.56-6.66c-1.43-1.52-2.99-1.75-4.88-1.01c-3.53,1.38-7.1,2.68-10.66,3.98
		c-1.45,0.53-2.3,1.53-2.63,3c-0.25,1.13-0.5,2.26-0.72,3.4C15.08,44.31,14.56,47.14,13.95,50.41z M75.8,57.1
		c-0.74,0.42-1.79,0.77-2.51,1.47c-3.76,3.64-7.41,7.4-11.14,11.07c-1.22,1.2-1.54,2.55-1.12,4.15c0.66,2.51,1.37,5.01,1.95,7.53
		c0.42,1.83,1.54,2.66,3.32,2.92c3.12,0.46,6.23,0.98,9.34,1.52c1.42,0.25,2.63-0.12,3.62-1.1c3.01-2.97,6.06-5.92,8.95-9.01
		c0.69-0.74,1.25-2.04,1.14-3c-0.42-3.6-1.12-7.18-1.75-10.75c-0.21-1.22-1.04-1.94-2.18-2.32c-0.49-0.16-1-0.28-1.5-0.41
		C81.33,58.51,78.74,57.85,75.8,57.1z M77.85,94.59c8.88-4.82,15.49-11.41,20.27-20.28c-2.36,0.28-4.39,0.44-6.39,0.81
		c-0.82,0.15-1.68,0.64-2.29,1.22c-2.66,2.53-5.27,5.13-7.83,7.76c-1.18,1.21-2.67,2.28-2.97,4.1
		C78.31,90.2,78.13,92.23,77.85,94.59z M20.36,84.94c7.73,8.26,17.13,13.22,28.71,14.74c-1.28-1.58-2.39-2.88-3.41-4.24
		c-1.31-1.74-2.99-2.94-4.99-3.79c-3.45-1.47-6.92-2.92-10.3-4.54C27.21,85.57,23.88,84.98,20.36,84.94z M63.6,4.15
		C52.62,2.33,42.4,3.96,32.51,9.2c0.73,0.32,1.21,0.49,1.67,0.73c3.19,1.65,6.48,2.06,9.95,0.96c1.02-0.32,2.11-0.45,3.17-0.58
		c5.77-0.69,10.98-2.93,15.99-5.74C63.38,4.52,63.42,4.4,63.6,4.15z M88.3,16.68c0.3,3.32,0.63,6.46,2.04,9.42
		c1.69,3.56,3.33,7.17,4.74,10.85c1.51,3.95,5.02,5.81,7.96,8.48C103.65,38.18,94.8,20.94,88.3,16.68z M7.67,59.87
		c0.14,0.05,0.27,0.1,0.41,0.15c1.35-2.91,2.96-5.74,3.99-8.76c0.98-2.88,1.38-5.97,2.02-8.97c0.34-1.6,0.66-3.21,0.93-4.82
		c0.53-3.1-1.27-5.58-2.24-8.62C7.52,38.84,5.85,49.07,7.67,59.87z"/>
	<path fill="#AF7EFF" d="M75.43,22.66c3.39,0.2,6.78,0.4,10.17,0.59c1.46,0.08,2.5,0.79,3.08,2.11c1.96,4.42,3.97,8.82,5.76,13.3
		c0.42,1.05,0.41,2.54-0.01,3.59c-1.91,4.78-4.02,9.49-6.08,14.21c-0.47,1.08-1.5,1.57-2.68,1.29c-2.83-0.7-5.69-1.3-8.45-2.23
		c-1.07-0.36-2.22-1.29-2.76-2.27c-2.67-4.91-5.23-9.89-7.61-14.95c-0.55-1.16-0.58-2.78-0.29-4.06c0.75-3.3,1.81-6.54,2.76-9.8
		c0.43-1.48,1.19-1.99,2.74-1.91c1.12,0.05,2.24,0.1,3.35,0.15C75.43,22.68,75.43,22.67,75.43,22.66z"/>
	<path fill="#AF7EFF" d="M26.08,71.88c0-1.16,0.02-2.32-0.01-3.47c-0.03-1.39,0.4-2.16,1.69-2.54c3.48-1.04,6.96-2.12,10.49-2.95
		c1.12-0.26,2.55-0.1,3.59,0.4c5.07,2.44,10.07,5.04,15.07,7.63c1.17,0.61,1.96,1.62,2.29,2.94c0.68,2.71,1.38,5.41,2.05,8.13
		c0.34,1.36-0.18,2.35-1.46,2.9c-4.51,1.95-9.02,3.91-13.52,5.86c-1.46,0.63-2.95,0.68-4.42,0.04c-4.17-1.82-8.33-3.67-12.51-5.47
		c-1.65-0.71-2.5-1.85-2.58-3.65c-0.15-3.27-0.36-6.54-0.55-9.81C26.17,71.88,26.12,71.88,26.08,71.88z"/>
	<path fill="#AF7EFF" d="M34.16,27.95c0.11-0.46,0.17-0.94,0.33-1.38c1.41-3.82,2.82-7.64,4.26-11.45c0.47-1.25,1.44-2.02,2.73-2.29
		c3.76-0.77,7.52-1.51,11.29-2.22c1.36-0.25,2.62,0.07,3.69,1c3.38,2.92,6.78,5.84,10.16,8.77c1.05,0.91,1.45,2.04,1.05,3.44
		c-0.96,3.34-1.9,6.69-2.84,10.03c-0.39,1.38-1.32,2.17-2.7,2.38c-4.61,0.73-9.23,1.43-13.85,2.15c-0.47,0.07-0.95,0.15-1.41,0.27
		c-1.98,0.52-3.56-0.05-4.97-1.52c-2.12-2.22-4.4-4.3-6.52-6.53c-0.64-0.68-0.97-1.65-1.44-2.48C34.02,28.06,34.09,28,34.16,27.95z"
		/>
	<path fill="#AF7EFF" d="M13.95,50.41c0.61-3.27,1.13-6.1,1.66-8.92c0.22-1.14,0.47-2.27,0.72-3.4c0.33-1.48,1.18-2.48,2.63-3
		c3.56-1.3,7.13-2.61,10.66-3.98c1.89-0.74,3.45-0.51,4.88,1.01c2.14,2.27,4.35,4.46,6.56,6.66c1.11,1.11,1.5,2.38,1.25,3.93
		c-0.85,5.2-1.69,10.4-2.48,15.61c-0.25,1.66-1.13,2.65-2.74,3.09c-3.08,0.85-6.16,1.7-9.22,2.62c-1.75,0.53-3.1,0.12-4.27-1.26
		c-2.74-3.23-5.56-6.39-8.25-9.65C14.66,52.26,14.31,51.13,13.95,50.41z"/>
	<path fill="#AF7EFF" d="M75.8,57.1c2.95,0.75,5.54,1.4,8.13,2.06c0.5,0.13,1.01,0.25,1.5,0.41c1.14,0.37,1.97,1.1,2.18,2.32
		c0.63,3.58,1.33,7.15,1.75,10.75c0.11,0.96-0.45,2.27-1.14,3c-2.89,3.09-5.93,6.04-8.95,9.01c-0.99,0.98-2.2,1.35-3.62,1.1
		c-3.11-0.54-6.22-1.06-9.34-1.52c-1.78-0.26-2.9-1.09-3.32-2.92c-0.58-2.53-1.29-5.03-1.95-7.53c-0.42-1.6-0.1-2.95,1.12-4.15
		c3.73-3.67,7.38-7.42,11.14-11.07C74.01,57.88,75.06,57.53,75.8,57.1z"/>
	<path fill="#AF7EFF" d="M77.85,94.59c0.28-2.36,0.46-4.39,0.79-6.39c0.3-1.82,1.79-2.89,2.97-4.1c2.57-2.63,5.17-5.23,7.83-7.76
		c0.61-0.58,1.47-1.06,2.29-1.22c1.99-0.37,4.02-0.53,6.39-0.81C93.34,83.18,86.73,89.76,77.85,94.59z"/>
	<path fill="#AF7EFF" d="M20.36,84.94c3.52,0.04,6.84,0.63,10.01,2.16c3.38,1.63,6.85,3.07,10.3,4.54c1.99,0.85,3.67,2.05,4.99,3.79
		c1.02,1.36,2.13,2.66,3.41,4.24C37.5,98.16,28.09,93.19,20.36,84.94z"/>
	<path fill="#AF7EFF" d="M63.6,4.15c-0.18,0.25-0.23,0.37-0.31,0.41c-5.01,2.81-10.22,5.05-15.99,5.74
		c-1.07,0.13-2.16,0.26-3.17,0.58c-3.47,1.1-6.76,0.69-9.95-0.96c-0.46-0.24-0.94-0.41-1.67-0.73C42.4,3.96,52.62,2.33,63.6,4.15z"
		/>
	<path fill="#AF7EFF" d="M88.3,16.68c6.51,4.26,15.36,21.5,14.75,28.75c-2.94-2.67-6.45-4.53-7.96-8.48
		c-1.41-3.68-3.05-7.29-4.74-10.85C88.93,23.14,88.6,20,88.3,16.68z"/>
	<path fill="#AF7EFF" d="M7.67,59.87c-1.82-10.8-0.15-21.03,5.11-31.02c0.97,3.04,2.78,5.52,2.24,8.62
		c-0.28,1.61-0.6,3.22-0.93,4.82c-0.63,3-1.03,6.09-2.02,8.97c-1.03,3.02-2.64,5.85-3.99,8.76C7.95,59.97,7.81,59.92,7.67,59.87z"/>
</g>
</svg>
