<svg enable-background="new 0 0 329.46 316.07" viewBox="0 0 329.46 316.07" xmlns="http://www.w3.org/2000/svg"><path d="m137.41 307.15c-16.67-.42-46.68-2.5-55.85-5s-33.76-23.34-40.01-29.17-34.59-58.35-35.01-77.94c-.42-19.59 5-76.27 14.17-90.86s32.51-55.01 65.85-71.27 53.76-17.09 57.1-19.59 30.84.42 34.17 0 5-3.33 6.25-6.25 5-2.5 4.58 0 5.83-.83 6.67.83c.83 1.67-1.25 5.42-2.92 6.25s4.17-2.08 6.25-2.5.42 4.58 0 6.25c11.67.42 42.09 11.67 63.77 28.34 21.67 16.67 27.92 29.59 32.51 29.17 2.92 6.25 5 15.84 7.92 16.25 2.92.42 11.25 28.76 11.25 30.84s-.83 9.17 5.42 15.42c.05 8.13-1.88 35.58 0 41.68-2.08 6.67-4.69 24.03-3.61 26.7-1.46 2.29-3.2 2.2-3.82 7.69-1.37 4.51-6.11 11.81-6.04 12.64 1.81 1.81 1.94 8.96-3.06 9.72-1.53 3.4-6.46 8.47-7.36 9.1.83 2.15-2.64 9.79-7.57 14.45-.9 3.82-7.99 10.49-13.2 13.75-.14 3.26.21 3.68-.69 4.38s-9.72 5.35-11.6 7.29c-2.01.07-5.07.83-6.46 2.5s-3.75 1.46-4.51 1.6-2.5 3.54-3.33 3.96-7.71 3.82-9.17 3.89c-1.74 1.25-8.82 5.56-25.21 3.82-3.33 3.89-13.75 10.21-16.95 10.7s-21.19-2.99-24.83-3.72c-5.54.65-27.32.65-34.71-.92z" fill="none" stroke="#000" stroke-miterlimit="10"/><path d="m81.86 277.89c1-4 6-9 2-12s-9-4-10-8c-9-25-19-55-5-80 8 9 20 0 30 0-1-2 1-3 1-5 4 0 8 1 12-1 2-2 4-7 6-8 7-4 13-8 18-15 2-2 6-1 9-1-1-8 7-16 1-25-1-2 7 0 9-3 5-9 10-15 19-20 1-1-2-3-1-4 13-9 28-15 28-32 0-1 2-4 2-5 7-13 0-26-4-39 0-.36.26-1.11.73-1.92-.32-.02-.63-.05-.92-.06.42-1.67 2.08-6.67 0-6.25s-7.92 3.33-6.25 2.5 3.75-4.58 2.92-6.25-7.09 1.67-6.67-.83-3.33-2.92-4.58 0-2.92 5.83-6.25 6.25-30.84-2.5-34.17 0-23.76 3.33-57.1 19.59c-33.35 16.25-56.69 56.68-65.86 71.27s-14.59 71.27-14.17 90.86 28.76 72.1 35.01 77.94c6.25 5.83 30.84 26.67 40.01 29.17 3.13.85 8.68 1.66 15.3 2.36-.12-11.85-1.58-26.63-15-26.63z" fill="#a9d566"/><path d="m319.53 137.95c-6.25-6.25-5.42-13.34-5.42-15.42s-8.34-30.42-11.25-30.84c-2.92-.42-5-10-7.92-16.25-4.58.42-10.84-12.5-32.51-29.17-21.12-16.27-50.56-27.36-62.84-28.3-.47.81-.73 1.56-.73 1.92 4 13 11 26 4 39 0 1-1.63 4.07-2 5-6.47 16.41-11.98 24.67-28 32-1 1 2 3 1 4-9 5-14 11-19 20-2 3-10 1-9 3 6 9-2 17-1 25-3 0-7-1-9 1-5 7-11 11-18 15-2 1-4 6-6 8-4 2-8 1-12 1 0 2-2 3-1 5-10 0-22 9-30 0-14 25-4 55 5 80 1 4 6 5 10 8s-1 8-2 12c13.42 0 14.88 14.78 15 26.62 12.79 1.36 29.56 2.36 40.55 2.64 7.4 1.56 29.17 1.56 34.7.94 3.65.73 21.64 4.2 24.83 3.72 3.2-.49 13.61-6.81 16.95-10.7 16.39 1.74 23.48-2.57 25.21-3.82 1.46-.07 8.34-3.47 9.17-3.89s2.57-3.82 3.33-3.96 3.13.07 4.51-1.6c1.39-1.67 4.45-2.43 6.46-2.5 1.88-1.94 10.7-6.6 11.6-7.29s.56-1.11.69-4.38c5.21-3.26 12.29-9.93 13.2-13.75 4.93-4.65 8.4-12.29 7.57-14.45.9-.63 5.83-5.7 7.36-9.1 5-.76 4.86-7.92 3.06-9.72-.07-.83 4.67-8.13 6.04-12.64.63-5.49 2.36-5.39 3.82-7.69-1.08-2.67 1.52-20.03 3.61-26.7-1.86-6.09.06-33.55.01-41.67z" fill="#bedd8e"/><path d="m213.88 301.11c7.54-9.32 17.85-30.22 23.96-35.22s50.01-25.56 59.46-36.68 13.61-19.45 14.17-24.45c-5 6.95-13.34 19.73-18.06 23.62s-48.07 27.51-52.79 29.17c1.94-6.39 1.67-19.45 6.67-30.56s57.79-61.68 58.07-70.02c-6.67 5.56-48.62 55.01-59.18 59.18 1.67-10-5-49.18 1.11-59.18s37.64-41.85 42.54-59.77c-12.09 14.9-14.2 18.37-27.82 30.04-13.61 11.67-15 15.28-18.62 16.95-2.78-8.34-8.61-18.34-3.89-29.73s14.17-24.45 14.17-28.62c-10 10.84-14.73 21.39-16.67 21.12-8.06-17.5-23.06-34.73-21.39-43.34s9.45-18.62 9.17-25.28c-.28-6.67-1.02-11.64-3.56-14.57-2.83 7.63 3.29 12.35-4.49 23.19s-5 16.67-7.22 18.06-5-2.5-6.39-4.17l-1.97 3.58c4.98 2.75 6.14 6.14 13.34 15.76-8.13.38-17.92 2.32-17.92 2.32-3.76 3.45 14.34 5.01 23.51 11.4s10 23.34 13.31 41.4c-6.97-6.67-39.98-31.12-61.1-29.73 25.01 1.39 44.87 27.65 55.99 36.81 4.17 2.5 3.01 22.37-1.25 45.15-7.32-5.56-38.62-36.95-77.24-36.68 31.4 5.83 66.4 37.23 70.85 41.95s2.22 4.72 1.39 30.29c-5.28-6.95-35.43-24.91-63.07-28.9 19.45 4.72 59.18 38.62 59.74 41.95s1.39 11.67-7.42 16.1-110.94-47.49-131.78-52.22c5.56 8.06 127.81 61.68 129.2 64.18s1.39 6.67-9.45 12.23c-4.72-1.67-65.57-25.28-81.96-26.67-10.6-2.29-26.95-.56-35.01 2.5-4.68 1.78 14.03-1.07 34.17 1.67 20.22 2.74 80.85 25.01 80.02 29.17-.83 4.17-12.78 17.23-24.35 24.97 0 0 21.76 4.83 24.83 3.72 3.06-1.1 12.38-5.06 16.93-10.69z" fill="#e1f1c1"/><path d="m319.53 137.95c-6.25-6.25-5.42-13.34-5.42-15.42s-8.34-30.42-11.25-30.84c-2.92-.42-5-10-7.92-16.25-4.58.42-10.84-12.5-32.51-29.17s-52.1-27.92-63.77-28.34c.42-1.67 2.08-6.67 0-6.25s-7.92 3.33-6.25 2.5 3.75-4.58 2.92-6.25-7.09 1.67-6.67-.83-3.33-2.92-4.58 0-2.92 5.83-6.25 6.25-30.84-2.5-34.17 0-23.76 3.33-57.1 19.59c-33.34 16.23-56.68 56.66-65.85 71.25s-14.59 71.27-14.17 90.86 28.76 72.1 35.01 77.94c6.25 5.83 30.84 26.67 40.01 29.17s39.18 4.58 55.85 5c7.4 1.56 29.17 1.56 34.7.94 3.65.73 21.64 4.2 24.83 3.72 3.2-.49 13.61-6.81 16.95-10.7 16.39 1.74 23.48-2.57 25.21-3.82 1.46-.07 8.34-3.47 9.17-3.89s2.57-3.82 3.33-3.96 3.13.07 4.51-1.6c1.39-1.67 4.45-2.43 6.46-2.5 1.88-1.94 10.7-6.6 11.6-7.29s.56-1.11.69-4.38c5.21-3.26 12.29-9.93 13.2-13.75 4.93-4.65 8.4-12.29 7.57-14.45.9-.63 5.83-5.7 7.36-9.1 5-.76 4.86-7.92 3.06-9.72-.07-.83 4.67-8.13 6.04-12.64.63-5.49 2.36-5.39 3.82-7.69-1.08-2.67 1.52-20.03 3.61-26.7-1.86-6.1.06-33.56.01-41.68z" fill="none"/><path d="m198.67 17.92c-.35 1.61.09 3.29.41 4.88 1.15 4.81 3.11 9.41 5.55 13.69.87 1.41 1.4 3.03 1.63 4.68.91 8.27-1.87 16.52-5.2 23.98-.61 1.55-1.79 2.77-2.55 4.2-.59 1.46-.41 3.14-.32 4.77 0 0 .14 2.48.14 2.48l.04 1.24c.28 2.29-1.56 3.95-3.17 5.26-5.25 4.05-11.36 6.75-16.81 10.45-1.47 1.06-3.04 2.11-3.91 3.66-.25.53-.34 1.16-.55 1.74-.27.64-.89 1.61-1.33 2.18-4.16 5.12-10.33 8.38-14.01 13.82-1.72 4.07-6.25 5.5-10.02 7.02-.91.45-2.29.88-2.44 1.93.2 1.1 1.27 2.01 1.65 3.08 1.51 3.03 2.08 6.48 1.79 9.83-.27 3.43-1.49 6.7-3.13 9.68-4.1 1.14-8.14 2.58-11.82 4.67-3.51 2.02-6.98 4.79-8.31 8.73 0 0-.13.38-.13.38-1.46-.36-3.02.24-4.48 1.02-3.89 2.24-7.72 5.52-9.4 9.77-5.33-.12-11.41 1.67-13.7 6.91 0 0-.15.32-.15.32l-.35-.05c-5.16-.55-10.13 2.12-15.01 3.57-3.13.87-6.62 2.2-9.92 1.2-2.07-.8-2.65-3.29-3.28-5.09 0 0 .35.28.35.28-1.21.03-2.37 1.46-3.13 2.4-2.04 2.85-4.05 6.32-3.96 9.91.97 6.63 1.9 13.29 2.52 19.97.47 5.2.91 10.49-.12 15.66-.96 6.58-.03 13.41 2.64 19.51 1.69 4.18 4.38 7.73 6.68 11.59.59 1.32 1.61 2.41 2.61 3.5 2.02 2.17 4.24 4.18 6.05 6.61.64.94 1.32 1.96 1.39 3.14.04 1.91-.84 3.71-1.55 5.41-.26.67-.64 1.41-.57 2.02.06.29.38.28.78.32 1.89.27 3.55 1.34 5.06 2.43 2.44 1.78 4.25 4.39 4.79 7.37.83 2.87 2.73 5.3 3.67 8.13.21.72.32 1.47.24 2.22-.19 1.09-.5 2.28.32 3.19.23.28.51.59.5.98-.01.76-.55 1.38-.95 1.99.4-.59.93-1.24.93-1.99-.07-.75-.93-1.18-1.02-1.95-.19-.74.07-1.5.15-2.22.07-.74-.05-1.48-.26-2.19-.97-2.82-2.89-5.22-3.75-8.1-.38-1.44-.77-2.87-1.68-4.07-1.93-2.59-4.81-4.85-8.03-5.46-1.83.03-.92-1.77-.52-2.8.57-1.37 1.18-2.74 1.4-4.18.71-3.62-5.14-7.82-7.34-10.48-2.17-2.09-3.3-4.92-5.1-7.36-5.09-7.41-8.14-16.39-7.33-25.44.07-1.25.37-3.2.57-4.47.65-4.38.09-8.87-.26-13.28-.64-6.65-1.6-13.31-2.59-19.93-.16-3.87 1.92-7.44 4.08-10.51 1.02-1.23 2.28-2.91 4.1-2.7.8 2.43 1.55 5.35 4.69 5.12 7.95-.16 14.89-5.89 22.98-5.2 0 0-.49.27-.49.27.6-1.3 1.41-2.51 2.44-3.51 3.08-3.02 7.61-3.98 11.77-4.01 0 0-.46.32-.46.32 1.71-4.55 9.37-11.68 14.47-11.13 0 0-.57.31-.57.31 3.21-8.29 12.81-11.54 20.62-13.88 0 0-.26.21-.26.21 3.2-5.59 4.24-12.68 1.29-18.57-.58-1.53-2.81-3.26-1.05-4.79 1.38-1.14 2.99-1.53 4.56-2.21 3.05-1.16 6.02-2.64 7.39-5.77 1.86-2.87 4.48-4.97 6.96-7.13 2.78-2.43 5.78-4.67 7.85-7.7.21-.34.37-.7.55-1.04 0 0 .33-1.13.33-1.13.06-.23.12-.46.24-.65 3.17-6.02 24.71-12.69 23.93-19.07 0 0-.03-1.23-.03-1.23s-.14-2.46-.14-2.46c-.07-1.63-.29-3.36.38-5.01 2.84-4.05 4.73-8.65 6.15-13.4 1.67-6.13 3.51-13.27.27-19.17-2.41-4.32-4.33-8.95-5.43-13.78-.26-1.61-.7-3.27-.33-4.89z"/></svg>